<svg xmlns="http://www.w3.org/2000/svg" width="2277" height="1457" fill="none">
    <g clip-path="url(#a)">
        <path fill="url(#b)" d="M2319.33-33.66H-30.7l-197 1601.69h2739.23l-192.2-1601.7Z" />
        <path fill="#E3F3FB"
            d="m-47.8 247.32 20.77 17.4 14.93 12.52c3.74 3.14 7.43 7.1 11.75 8.41 7.62 2.32 15.26.78 22.5-3.09 7.5-4 12.52-11.95 19.72-2.87 9.18 11.57 20.4 19.75 31.63 26.3 10.5 6.13 21.7 9.2 32.18 15.26 11.63 6.72 34.88 6.72 53.49 0 11.97-4.33 23.57-10.53 34.97-17.27 8.47-5 21.95-18.36 30.58-15.1 10.57 3.98 19.28 17.93 29.79 22.29 0 0 65.1 26.88 93.01 33.6 27.9 6.72 62.79-6.72 88.36 0 25.58 6.72 69.77 1.94 69.77 1.94l25.58 1.65s51.15-23.75 60.45-27.11c9.3-3.36 9.3-6.72 23.26-6.72h32.55s46.51 37.41 55.81 33.83c9.3-3.6 53.49-6.95 72.1 13.2 18.6 20.17 155.99 35.05 155.99 35.05s96.22-13.98 109.65-13.1c13.42.9 93.73-42.1 93.73-42.1s12.68-3.36 19.66-3.36 67.43-33.6 74.41-36.97c6.98-3.35-9.3 3.37 6.98-3.35 16.27-6.72 46.5 28.32 53.48 24.24 6.98-4.08 41.86 0 41.86 0 16.27-.72 32.55-9.36 39.53 0 6.98 9.36 32.55 16.08 32.55 16.08l30.23 13.44 56.35 32.36 271.53-2.12s106.97-25.44 132.55-59.76c25.58-34.33 39.53-51.13 55.81-61.2 16.28-10.09 20.93-20.17 27.9-13.45 6.98 6.72 4.65 10.08 23.26 20.16 18.6 10.08 16.38 1.47 41.85 13.44 25.48 11.98 45.7-10.16 71.69 3.32 25.98 13.48 219.17 123.9 238.85 112.37 19.67-11.52 0 1060.39 0 1060.39L-85 1413.32l37.2-1166Z" />
        <path fill="#C4E4FF"
            d="M-25 964.01c6.5 0 92.07-10.76 112.65-5.38 20.58 5.38 69.32-14.35 88.82-21.53 19.5-7.18 43.32-8.97 56.32-10.77 13-1.8 41.16-26.91 47.66-26.91s8.66-12.56 28.16 0 56.32 28.5 75.82 29.5c19.5 1 49.83 0 49.83 0s26 6.19 36.82 0c10.84-6.18 8.67-13.55 32.5 0 23.83 13.56 54.16 15.36 71.49 20.74 17.33 5.38 60.65 5.38 67.15 7.18 6.5 1.79 43.33-10.77 56.33-12.56 13-1.8 28.16-3.6 41.16-3.6 13 0 73.65-21.52 80.15-23.32 6.5-1.8 13-7.18 19.5-7.18s38.99-8.97 38.99-8.97 32.5 5.39 51.99 10.77c19.5 5.38 45.5 19.54 64.99 16.95 19.5-2.6 51.99-13.36 51.99-13.36s6.5-3.6 28.16 3.58c21.67 7.18 19.5-1.99 49.83 9.78 30.33 11.76 28.57 13.55 48.94 17.14 20.38 3.59 65.87-3.59 74.54-3.59 8.66 0 28.16-3.59 49.82-3.59s62.82-9.96 62.82-9.96 10.83-2.8 23.83 0c13 2.79 2.17-2.6 51.99 8.17 49.83 10.76 69.33 9.5 88.82 12.56 19.5 3.05 164.64-3.59 181.97-1.8 17.33 1.8 121.32 25.12 164.64 16.15 43.33-8.97 86.65-44.86 108.32-52.03 21.66-7.18 23.83-7.58 38.99-18.14 15.16-10.57 30.33-28.51 38.99-32.1 8.67-3.59 26-15.43 34.66-20.28 8.67-4.84 34.67-19.2 34.67-19.2h15.15c5.96 0 10.69 3.5 16.69 1.4h.02c9.48-3.33 16.01-19.19 28-14.66 7.11 2.68 9.43 9.17 13.23 14.26 4.42 5.92 10.42 9.98 17.27 13.96 12.21 7.12 25.78 12.9 35.28 22.73 8.67 8.97 56.05 53.82 56.05 53.82l-26.74 559.81-2286.6 21.53L-25 964.01Z" />
    </g>
    <defs>
        <clipPath id="a">
            <path fill="#fff" d="M0 0h2277v1457H0z" />
        </clipPath>
    </defs>
</svg>