<svg width="5000" height="2900" viewBox="0 0 5000 2900" fill="none" xmlns="http://www.w3.org/2000/svg">
<g clip-path="url(#clip0_1_2)">
<path d="M5500 -290H-500V3190H5500V-290Z" fill="url(#paint0_linear_1_2)"/>
<path d="M-105.173 596.299C-89.978 610.4 -74.7827 624.498 -59.5874 638.607C-48.6572 648.748 -37.7295 658.9 -26.7993 669.041C-18.5791 676.67 -10.4712 686.311 -0.996094 689.498C15.7397 695.139 32.5293 691.389 48.4375 681.979C64.8804 672.26 75.9106 652.928 91.7236 674.998C111.87 703.119 136.531 723.029 161.187 738.947C184.243 753.85 208.835 761.311 231.848 776.041C257.38 792.381 308.442 792.381 349.297 776.041C375.586 765.518 401.052 750.447 426.106 734.049C444.697 721.881 474.297 689.428 493.25 697.33C516.458 707.018 535.581 740.947 558.657 751.529C558.657 751.529 701.636 816.889 762.91 833.229C824.185 849.568 900.786 816.889 956.953 833.229C1013.12 849.568 1110.15 837.947 1110.15 837.947L1166.32 841.959C1166.32 841.959 1278.65 784.209 1299.08 776.041C1319.5 767.869 1319.5 759.697 1350.15 759.697C1380.79 759.697 1421.64 759.697 1421.64 759.697C1421.64 759.697 1523.76 850.678 1544.18 841.959C1564.61 833.229 1661.64 825.061 1702.49 874.08C1743.33 923.1 2045.04 959.279 2045.04 959.279C2045.04 959.279 2256.34 925.279 2285.82 927.447C2315.31 929.607 2491.65 825.061 2491.65 825.061C2491.65 825.061 2519.5 816.889 2534.82 816.889C2550.15 816.889 2682.91 735.189 2698.23 727.018C2713.55 718.85 2677.81 735.189 2713.55 718.85C2749.29 702.51 2815.68 787.709 2831 777.791C2846.32 767.869 2922.91 777.791 2922.91 777.791C2958.65 776.041 2994.4 755.029 3009.72 777.791C3025.04 800.549 3081.21 816.889 3081.21 816.889L3147.59 849.568L3271.34 928.248L3867.59 923.1C3867.59 923.1 4102.49 861.24 4158.65 777.791C4214.82 694.338 4245.47 653.49 4281.21 628.979C4316.95 604.471 4327.17 579.947 4342.49 596.291C4357.81 612.639 4352.7 620.811 4393.55 645.318C4434.4 669.83 4429.52 648.889 4485.47 677.998C4541.4 707.107 4585.81 653.279 4642.87 686.061C4699.93 718.85 5124.17 987.299 5167.37 959.279C5210.57 931.268 5167.37 3537.57 5167.37 3537.57L-186.875 3431.36C-186.875 3431.36 -105.173 596.291 -105.173 596.299Z" fill="#E3F3FB"/>
<path d="M-321.875 1885.53C-306.555 1885.53 -104.854 1836.51 -56.3428 1861.02C-7.83203 1885.53 107.061 1795.66 153.018 1762.98C198.975 1730.29 255.146 1722.12 285.784 1713.95C316.423 1705.78 382.805 1591.4 398.125 1591.4C413.445 1591.4 418.55 1534.21 464.507 1591.4C510.466 1648.59 597.273 1721.22 643.235 1725.76C689.189 1730.29 760.679 1725.76 760.679 1725.76C760.679 1725.76 821.953 1753.9 847.483 1725.76C873.022 1697.61 867.908 1664.02 924.084 1725.76C980.251 1787.49 1051.74 1795.66 1092.59 1820.17C1133.45 1844.68 1235.57 1844.68 1250.89 1852.85C1266.21 1861.02 1353.02 1803.83 1383.66 1795.66C1414.3 1787.49 1450.04 1779.32 1480.68 1779.32C1511.32 1779.32 1654.3 1681.27 1669.61 1673.1C1684.93 1664.93 1700.25 1640.42 1715.57 1640.42C1730.89 1640.42 1807.48 1599.57 1807.48 1599.57C1807.48 1599.57 1884.08 1624.08 1930.04 1648.59C1976 1673.1 2037.27 1737.56 2083.23 1725.76C2129.19 1713.95 2205.78 1664.93 2205.78 1664.93C2205.78 1664.93 2221.1 1648.59 2272.17 1681.27C2323.23 1713.95 2318.13 1672.2 2389.61 1725.76C2461.1 1779.32 2456.97 1787.49 2504.99 1803.83C2553.02 1820.17 2660.25 1787.49 2680.68 1787.49C2701.1 1787.49 2747.06 1771.15 2798.13 1771.15C2849.19 1771.15 2946.21 1725.76 2946.21 1725.76C2946.21 1725.76 2971.74 1713.05 3002.38 1725.76C3033.02 1738.47 3007.48 1713.95 3124.93 1762.98C3242.38 1812 3288.34 1806.28 3334.3 1820.17C3380.25 1834.06 3722.38 1803.83 3763.23 1812C3804.08 1820.17 4049.19 1926.38 4151.32 1885.53C4253.45 1844.68 4355.57 1681.27 4406.63 1648.59C4457.7 1615.91 4462.81 1614.1 4498.55 1565.98C4534.3 1517.87 4570.04 1436.17 4590.47 1419.83C4610.89 1403.49 4651.74 1349.56 4672.17 1327.5C4692.59 1305.44 4753.87 1240.08 4753.87 1240.08C4753.87 1240.08 4788.73 1240.08 4789.6 1240.08C4803.65 1240.08 4814.8 1255.96 4828.94 1246.42C4828.95 1246.42 4828.95 1246.42 4828.97 1246.4C4851.32 1231.28 4866.72 1159.05 4894.99 1179.68C4911.74 1191.9 4917.21 1221.44 4926.16 1244.62C4936.58 1271.59 4950.72 1290.04 4966.87 1308.2C4995.66 1340.58 5027.65 1366.88 5050.04 1411.66C5070.47 1452.51 5182.16 1656.76 5182.16 1656.76L5119.13 4205.87L-270.811 4303.91L-321.875 1885.53Z" fill="#9BCCF5"/>
</g>
<defs>
<linearGradient id="paint0_linear_1_2" x1="2500" y1="2900" x2="2500" y2="5.76178e-05" gradientUnits="userSpaceOnUse">
<stop stop-color="white"/>
<stop offset="0.5" stop-color="white"/>
<stop offset="0.75" stop-color="white"/>
<stop offset="0.78125" stop-color="white"/>
<stop offset="0.785156" stop-color="white"/>
<stop offset="0.789062" stop-color="#FEFFFF"/>
<stop offset="0.796875" stop-color="#FEFFFF"/>
<stop offset="0.8125" stop-color="#FEFFFF"/>
<stop offset="0.816406" stop-color="#FEFFFF"/>
<stop offset="0.820312" stop-color="#FDFEFF"/>
<stop offset="0.828125" stop-color="#FDFEFF"/>
<stop offset="0.835938" stop-color="#FDFEFF"/>
<stop offset="0.84375" stop-color="#FCFDFE"/>
<stop offset="0.851562" stop-color="#FBFDFE"/>
<stop offset="0.855469" stop-color="#FAFDFE"/>
<stop offset="0.859375" stop-color="#FAFCFE"/>
<stop offset="0.867188" stop-color="#F9FCFE"/>
<stop offset="0.871094" stop-color="#F8FCFE"/>
<stop offset="0.875" stop-color="#F8FCFE"/>
<stop offset="0.878906" stop-color="#F7FBFE"/>
<stop offset="0.882812" stop-color="#F6FAFE"/>
<stop offset="0.886719" stop-color="#F6FAFE"/>
<stop offset="0.890625" stop-color="#F5FAFD"/>
<stop offset="0.894531" stop-color="#F4F9FD"/>
<stop offset="0.898438" stop-color="#F2F9FD"/>
<stop offset="0.902344" stop-color="#F2F8FD"/>
<stop offset="0.90625" stop-color="#F1F8FD"/>
<stop offset="0.910156" stop-color="#F0F7FD"/>
<stop offset="0.914062" stop-color="#EEF7FD"/>
<stop offset="0.917969" stop-color="#EDF6FC"/>
<stop offset="0.921875" stop-color="#EBF5FC"/>
<stop offset="0.925781" stop-color="#EAF4FC"/>
<stop offset="0.929688" stop-color="#E9F4FC"/>
<stop offset="0.933594" stop-color="#E7F3FC"/>
<stop offset="0.9375" stop-color="#E6F2FB"/>
<stop offset="0.941406" stop-color="#E4F1FB"/>
<stop offset="0.945312" stop-color="#E2F0FB"/>
<stop offset="0.949219" stop-color="#E0EFFA"/>
<stop offset="0.953125" stop-color="#DEEEFA"/>
<stop offset="0.957031" stop-color="#DBEDFA"/>
<stop offset="0.960938" stop-color="#D9ECF9"/>
<stop offset="0.964844" stop-color="#D6EBF9"/>
<stop offset="0.96875" stop-color="#D4EAF9"/>
<stop offset="0.972656" stop-color="#D1E8F8"/>
<stop offset="0.976562" stop-color="#CEE7F8"/>
<stop offset="0.980469" stop-color="#CBE5F7"/>
<stop offset="0.984375" stop-color="#C8E4F7"/>
<stop offset="0.988281" stop-color="#C5E2F6"/>
<stop offset="0.992188" stop-color="#C2E0F6"/>
<stop offset="0.996094" stop-color="#BEDFF5"/>
<stop offset="1" stop-color="#BADDF5"/>
</linearGradient>
<clipPath id="clip0_1_2">
<rect width="5000" height="2900" fill="white"/>
</clipPath>
</defs>
</svg>
