<svg width="2277" height="1457" viewBox="0 0 2277 1457" fill="none" xmlns="http://www.w3.org/2000/svg">
<g clip-path="url(#clip0_1_2)">
<rect width="2277" height="1457" fill="black"/>
<path d="M2319.33 -33.6617H-30.7036L-227.7 1568.03H2511.53L2319.33 -33.6617Z" fill="url(#paint0_linear_1_2)"/>
<path d="M-47.7941 247.323C-40.8744 253.122 -33.9546 258.92 -27.0348 264.723C-22.0574 268.894 -17.081 273.069 -12.1036 277.24C-8.36019 280.377 -4.66795 284.342 -0.353114 285.653C7.26817 287.973 14.9139 286.431 22.1583 282.561C29.6462 278.564 34.6692 270.613 41.8703 279.69C51.0447 291.255 62.2749 299.444 73.5028 305.991C84.0025 312.12 95.2015 315.188 105.681 321.246C117.308 327.967 140.561 327.967 159.166 321.246C171.138 316.918 182.735 310.72 194.144 303.976C202.61 298.972 216.089 285.624 224.72 288.874C235.289 292.859 243.997 306.813 254.506 311.165C254.506 311.165 319.616 338.046 347.52 344.766C375.424 351.487 410.307 338.046 435.885 344.766C461.464 351.487 505.648 346.707 505.648 346.707L531.226 348.357C531.226 348.357 582.384 324.606 591.685 321.246C600.986 317.886 600.986 314.525 614.941 314.525C628.893 314.525 647.495 314.525 647.495 314.525C647.495 314.525 694.001 351.943 703.302 348.357C712.604 344.766 756.788 341.407 775.391 361.568C793.993 381.728 931.386 396.608 931.386 396.608C931.386 396.608 1027.61 382.625 1041.04 383.516C1054.46 384.405 1134.77 341.407 1134.77 341.407C1134.77 341.407 1147.45 338.046 1154.43 338.046C1161.41 338.046 1221.86 304.445 1228.84 301.084C1235.82 297.725 1219.54 304.445 1235.82 297.725C1252.09 291.005 1282.32 326.045 1289.3 321.966C1296.28 317.886 1331.16 321.966 1331.16 321.966C1347.43 321.246 1363.71 312.605 1370.69 321.966C1377.67 331.326 1403.24 338.046 1403.24 338.046L1433.47 351.487L1489.82 383.846L1761.35 381.728C1761.35 381.728 1868.32 356.287 1893.9 321.966C1919.48 287.644 1933.43 270.844 1949.71 260.763C1965.99 250.683 1970.64 240.598 1977.61 247.319C1984.59 254.043 1982.26 257.404 2000.87 267.483C2019.47 277.564 2017.25 268.952 2042.72 280.924C2068.2 292.896 2088.42 270.757 2114.41 284.24C2140.39 297.725 2333.58 408.132 2353.26 396.608C2372.93 385.088 2353.26 1457 2353.26 1457L-85 1413.32C-85 1413.32 -47.7941 247.319 -47.7941 247.323Z" fill="#093247"/>
<path d="M-25 964.013C-18.5008 964.013 67.068 953.248 87.6479 958.63C108.228 964.013 156.969 944.276 176.466 937.1C195.962 929.92 219.792 928.126 232.79 926.332C245.788 924.538 273.95 899.419 280.449 899.419C286.948 899.419 289.114 886.859 308.61 899.419C328.108 911.978 364.934 927.929 384.433 928.926C403.928 929.92 434.256 928.926 434.256 928.926C434.256 928.926 460.251 935.106 471.082 928.926C481.917 922.743 479.747 915.367 503.579 928.926C527.407 942.483 557.735 944.276 575.065 949.659C592.398 955.042 635.722 955.042 642.221 956.836C648.72 958.63 685.549 946.071 698.546 944.276C711.544 942.483 726.707 940.688 739.705 940.688C752.703 940.688 813.36 919.155 819.858 917.361C826.357 915.567 832.856 910.184 839.355 910.184C845.854 910.184 878.347 901.213 878.347 901.213C878.347 901.213 910.844 906.596 930.339 911.978C949.836 917.361 975.831 931.518 995.33 928.926C1014.83 926.332 1047.32 915.567 1047.32 915.567C1047.32 915.567 1053.82 911.978 1075.48 919.155C1097.15 926.332 1094.98 917.163 1125.31 928.926C1155.64 940.688 1153.88 942.483 1174.25 946.071C1194.63 949.659 1240.12 942.483 1248.79 942.483C1257.45 942.483 1276.95 938.894 1298.61 938.894C1320.27 938.894 1361.43 928.926 1361.43 928.926C1361.43 928.926 1372.26 926.134 1385.26 928.926C1398.26 931.717 1387.43 926.332 1437.25 937.1C1487.08 947.865 1506.58 946.609 1526.07 949.659C1545.57 952.71 1690.71 946.071 1708.04 947.865C1725.37 949.659 1829.36 972.984 1872.68 964.013C1916.01 955.042 1959.33 919.155 1981 911.978C2002.66 904.801 2004.83 904.404 2019.99 893.836C2035.15 883.271 2050.32 865.329 2058.98 861.741C2067.65 858.152 2084.98 846.309 2093.64 841.464C2102.31 836.619 2128.31 822.266 2128.31 822.266C2128.31 822.266 2143.09 822.266 2143.46 822.266C2149.42 822.266 2154.15 825.753 2160.15 823.658C2160.15 823.658 2160.16 823.658 2160.17 823.654C2169.65 820.333 2176.18 804.47 2188.17 809.001C2195.28 811.685 2197.6 818.172 2201.4 823.262C2205.82 829.185 2211.82 833.237 2218.67 837.225C2230.88 844.336 2244.45 850.112 2253.95 859.946C2262.62 868.917 2310 913.773 2310 913.773L2283.26 1473.58L-3.3367 1495.11L-25 964.013Z" fill="#164165"/>
</g>
<defs>
<linearGradient id="paint0_linear_1_2" x1="1141.92" y1="1425.42" x2="1141.92" y2="-0.712746" gradientUnits="userSpaceOnUse">
<stop/>
<stop offset="0.5"/>
<stop offset="0.75"/>
<stop offset="0.78125"/>
<stop offset="0.785156"/>
<stop offset="0.789062"/>
<stop offset="0.796875"/>
<stop offset="0.8125"/>
<stop offset="0.816406" stop-color="#02151D"/>
<stop offset="0.820312" stop-color="#02141B"/>
<stop offset="0.828125" stop-color="#05232E"/>
<stop offset="0.957031" stop-color="#025896"/>
<stop offset="0.960938" stop-color="#06548C"/>
<stop offset="0.964844" stop-color="#058AE8"/>
<stop offset="0.96875" stop-color="#0A91EF"/>
<stop offset="0.972656" stop-color="#038CEB"/>
<stop offset="0.976562" stop-color="#058AE7"/>
<stop offset="0.980469" stop-color="#0988E0"/>
<stop offset="0.984375" stop-color="#0481D9"/>
<stop offset="0.988281" stop-color="#007ED6"/>
<stop offset="0.992188" stop-color="#007DD5"/>
<stop offset="0.996094" stop-color="#0070BE"/>
<stop offset="1" stop-color="#00395F"/>
</linearGradient>
<clipPath id="clip0_1_2">
<rect width="2277" height="1457" fill="white"/>
</clipPath>
</defs>
</svg>
