<svg xmlns="http://www.w3.org/2000/svg" width="2277" height="1457" fill="none"><g clip-path="url(#a)"><path fill="url(#b)" d="M2319.33-33.662H-30.704L-227.7 1568.03h2739.23L2319.33-33.662Z"/><path fill="#E3F3FB" d="M-47.794 247.323c6.92 5.799 13.84 11.597 20.76 17.4 4.977 4.171 9.953 8.346 14.93 12.517 3.744 3.137 7.436 7.102 11.75 8.413 7.622 2.32 15.268.778 22.512-3.092 7.488-3.997 12.511-11.948 19.712-2.871 9.175 11.565 20.405 19.754 31.633 26.301 10.5 6.129 21.698 9.197 32.178 15.255 11.627 6.721 34.88 6.721 53.485 0 11.972-4.328 23.569-10.526 34.978-17.27 8.466-5.004 21.945-18.352 30.576-15.102 10.569 3.985 19.277 17.939 29.786 22.291 0 0 65.11 26.881 93.014 33.601 27.904 6.721 62.787-6.72 88.365 0 25.579 6.721 69.763 1.941 69.763 1.941l25.578 1.65s51.158-23.751 60.459-27.111c9.301-3.36 9.301-6.721 23.256-6.721h32.554s46.506 37.418 55.807 33.832c9.302-3.591 53.486-6.95 72.089 13.211 18.602 20.16 155.995 35.04 155.995 35.04s96.224-13.983 109.654-13.092c13.42.889 93.73-42.109 93.73-42.109s12.68-3.361 19.66-3.361 67.43-33.601 74.41-36.962c6.98-3.359-9.3 3.361 6.98-3.359 16.27-6.72 46.5 28.32 53.48 24.241 6.98-4.08 41.86 0 41.86 0 16.27-.72 32.55-9.361 39.53 0 6.98 9.36 32.55 16.08 32.55 16.08l30.23 13.441 56.35 32.359 271.53-2.118s106.97-25.441 132.55-59.762c25.58-34.322 39.53-51.122 55.81-61.203 16.28-10.08 20.93-20.165 27.9-13.444 6.98 6.724 4.65 10.085 23.26 20.164 18.6 10.081 16.38 1.469 41.85 13.441 25.48 11.972 45.7-10.167 71.69 3.316 25.98 13.485 219.17 123.892 238.85 112.368 19.67-11.52 0 1060.392 0 1060.392L-85 1413.32l37.206-1165.997Z"/><path fill="#C4E4FF" d="M-25 964.013c6.5 0 92.068-10.765 112.648-5.383 20.58 5.383 69.321-14.354 88.818-21.53 19.496-7.18 43.326-8.974 56.324-10.768 12.998-1.794 41.16-26.913 47.659-26.913 6.499 0 8.665-12.56 28.161 0 19.498 12.559 56.324 28.51 75.823 29.507 19.495.994 49.823 0 49.823 0s25.995 6.18 36.826 0c10.835-6.183 8.665-13.559 32.497 0 23.828 13.557 54.156 15.35 71.486 20.733 17.333 5.383 60.657 5.383 67.156 7.177 6.499 1.794 43.328-10.765 56.325-12.56 12.998-1.793 28.161-3.588 41.159-3.588 12.998 0 73.655-21.533 80.153-23.327 6.499-1.794 12.998-7.177 19.497-7.177 6.499 0 38.992-8.971 38.992-8.971s32.497 5.383 51.992 10.765c19.497 5.383 45.492 19.54 64.991 16.948 19.5-2.594 51.99-13.359 51.99-13.359s6.5-3.589 28.16 3.588c21.67 7.177 19.5-1.992 49.83 9.771 30.33 11.762 28.57 13.557 48.94 17.145 20.38 3.588 65.87-3.588 74.54-3.588 8.66 0 28.16-3.589 49.82-3.589s62.82-9.968 62.82-9.968 10.83-2.792 23.83 0c13 2.791 2.17-2.594 51.99 8.174 49.83 10.765 69.33 9.509 88.82 12.559 19.5 3.051 164.64-3.588 181.97-1.794 17.33 1.794 121.32 25.119 164.64 16.148 43.33-8.971 86.65-44.858 108.32-52.035 21.66-7.177 23.83-7.574 38.99-18.142 15.16-10.565 30.33-28.507 38.99-32.095 8.67-3.589 26-15.432 34.66-20.277 8.67-4.845 34.67-19.198 34.67-19.198h15.15c5.96 0 10.69 3.487 16.69 1.392 0 0 .01 0 .02-.004 9.48-3.321 16.01-19.184 28-14.653 7.11 2.684 9.43 9.171 13.23 14.261 4.42 5.923 10.42 9.975 17.27 13.963 12.21 7.111 25.78 12.887 35.28 22.721 8.67 8.971 56.05 53.827 56.05 53.827l-26.74 559.807-2286.597 21.53L-25 964.013Z"/></g><defs><linearGradient id="b" x1="1141.92" x2="1141.92" y1="1425.42" y2="-.713" gradientUnits="userSpaceOnUse"><stop stop-color="#fff"/><stop offset=".5" stop-color="#fff"/><stop offset=".75" stop-color="#fff"/><stop offset=".781" stop-color="#fff"/><stop offset=".785" stop-color="#fff"/><stop offset=".789" stop-color="#FEFFFF"/><stop offset=".797" stop-color="#FEFFFF"/><stop offset=".813" stop-color="#FEFFFF"/><stop offset=".816" stop-color="#FEFFFF"/><stop offset=".82" stop-color="#FDFEFF"/><stop offset=".828" stop-color="#FDFEFF"/><stop offset=".836" stop-color="#FDFEFF"/><stop offset=".844" stop-color="#FCFDFE"/><stop offset=".852" stop-color="#FBFDFE"/><stop offset=".855" stop-color="#FAFDFE"/><stop offset=".859" stop-color="#FAFCFE"/><stop offset=".867" stop-color="#F9FCFE"/><stop offset=".871" stop-color="#F8FCFE"/><stop offset=".875" stop-color="#F8FCFE"/><stop offset=".879" stop-color="#F7FBFE"/><stop offset=".883" stop-color="#F6FAFE"/><stop offset=".887" stop-color="#F6FAFE"/><stop offset=".891" stop-color="#F5FAFD"/><stop offset=".895" stop-color="#F4F9FD"/><stop offset=".898" stop-color="#F2F9FD"/><stop offset=".902" stop-color="#F2F8FD"/><stop offset=".906" stop-color="#F1F8FD"/><stop offset=".91" stop-color="#F0F7FD"/><stop offset=".914" stop-color="#EEF7FD"/><stop offset=".918" stop-color="#EDF6FC"/><stop offset=".922" stop-color="#EBF5FC"/><stop offset=".926" stop-color="#EAF4FC"/><stop offset=".93" stop-color="#E9F4FC"/><stop offset=".934" stop-color="#E7F3FC"/><stop offset=".938" stop-color="#E6F2FB"/><stop offset=".941" stop-color="#E4F1FB"/><stop offset=".945" stop-color="#E2F0FB"/><stop offset=".949" stop-color="#E0EFFA"/><stop offset=".953" stop-color="#DEEEFA"/><stop offset=".957" stop-color="#DBEDFA"/><stop offset=".961" stop-color="#D9ECF9"/><stop offset=".965" stop-color="#D6EBF9"/><stop offset=".969" stop-color="#D4EAF9"/><stop offset=".973" stop-color="#D1E8F8"/><stop offset=".977" stop-color="#CEE7F8"/><stop offset=".98" stop-color="#CBE5F7"/><stop offset=".984" stop-color="#C8E4F7"/><stop offset=".988" stop-color="#C5E2F6"/><stop offset=".992" stop-color="#C2E0F6"/><stop offset=".996" stop-color="#BEDFF5"/><stop offset="1" stop-color="#BADDF5"/></linearGradient><clipPath id="a"><path fill="#fff" d="M0 0h2277v1457H0z"/></clipPath></defs></svg>