<svg width="5000" height="2900" viewBox="0 0 5000 2900" fill="none" xmlns="http://www.w3.org/2000/svg">
<g clip-path="url(#clip0_1_2)">
<path d="M5092.95 -67H-67.4212L-500 3121H5515L5092.95 -67Z" fill="url(#paint0_linear_1_2)"/>
<path d="M-105.173 596.299C-89.978 610.4 -74.7827 624.498 -59.5874 638.607C-48.6572 648.748 -37.7295 658.9 -26.7993 669.041C-18.5791 676.67 -10.4712 686.311 -0.996094 689.498C15.7397 695.139 32.5293 691.389 48.4375 681.979C64.8804 672.26 75.9106 652.928 91.7236 674.998C111.87 703.119 136.531 723.029 161.187 738.947C184.243 753.85 208.835 761.311 231.848 776.041C257.38 792.381 308.442 792.381 349.297 776.041C375.586 765.518 401.052 750.447 426.106 734.049C444.697 721.881 474.297 689.428 493.25 697.33C516.458 707.018 535.581 740.947 558.657 751.529C558.657 751.529 701.636 816.889 762.91 833.229C824.185 849.568 900.786 816.889 956.953 833.229C1013.12 849.568 1110.15 837.947 1110.15 837.947L1166.32 841.959C1166.32 841.959 1278.65 784.209 1299.08 776.041C1319.5 767.869 1319.5 759.697 1350.15 759.697C1380.79 759.697 1421.64 759.697 1421.64 759.697C1421.64 759.697 1523.76 850.678 1544.18 841.959C1564.61 833.229 1661.64 825.061 1702.49 874.08C1743.33 923.1 2045.04 959.279 2045.04 959.279C2045.04 959.279 2256.34 925.279 2285.82 927.447C2315.31 929.607 2491.65 825.061 2491.65 825.061C2491.65 825.061 2519.5 816.889 2534.82 816.889C2550.15 816.889 2682.91 735.189 2698.23 727.018C2713.55 718.85 2677.81 735.189 2713.55 718.85C2749.29 702.51 2815.68 787.709 2831 777.791C2846.32 767.869 2922.91 777.791 2922.91 777.791C2958.65 776.041 2994.4 755.029 3009.72 777.791C3025.04 800.549 3081.21 816.889 3081.21 816.889L3147.59 849.568L3271.34 928.248L3867.59 923.1C3867.59 923.1 4102.49 861.24 4158.65 777.791C4214.82 694.338 4245.47 653.49 4281.21 628.979C4316.95 604.471 4327.17 579.947 4342.49 596.291C4357.81 612.639 4352.7 620.811 4393.55 645.318C4434.4 669.83 4429.52 648.889 4485.47 677.998C4541.4 707.107 4585.81 653.279 4642.87 686.061C4699.93 718.85 5124.17 987.299 5167.37 959.279C5210.57 931.268 5167.37 3537.57 5167.37 3537.57L-186.875 3431.36C-186.875 3431.36 -105.173 596.291 -105.173 596.299Z" fill="#E3F3FB"/>
<path d="M-56 1861.26C-41.7296 1861.26 146.155 1832.84 191.343 1847.05C236.531 1861.26 343.553 1809.17 386.362 1790.22C429.171 1771.28 481.495 1766.54 510.033 1761.8C538.574 1757.07 600.409 1690.77 614.679 1690.77C628.95 1690.77 633.705 1657.62 676.514 1690.77C719.325 1723.92 800.185 1766.02 842.999 1768.65C885.805 1771.28 952.397 1768.65 952.397 1768.65C952.397 1768.65 1009.47 1784.96 1033.26 1768.65C1057.05 1752.33 1052.28 1732.86 1104.61 1768.65C1156.93 1804.43 1223.52 1809.17 1261.57 1823.37C1299.63 1837.58 1394.76 1837.58 1409.03 1842.32C1423.3 1847.05 1504.16 1813.9 1532.7 1809.17C1561.24 1804.43 1594.54 1799.7 1623.08 1799.7C1651.62 1799.7 1784.8 1742.86 1799.07 1738.13C1813.34 1733.39 1827.61 1719.19 1841.88 1719.19C1856.15 1719.19 1927.49 1695.51 1927.49 1695.51C1927.49 1695.51 1998.85 1709.72 2041.66 1723.92C2084.46 1738.13 2141.54 1775.49 2184.36 1768.65C2227.16 1761.8 2298.51 1733.39 2298.51 1733.39C2298.51 1733.39 2312.78 1723.92 2360.35 1742.86C2407.92 1761.8 2403.16 1737.61 2469.75 1768.65C2536.34 1799.7 2532.49 1804.43 2577.22 1813.9C2621.96 1823.37 2721.85 1804.43 2740.88 1804.43C2759.9 1804.43 2802.71 1794.96 2850.28 1794.96C2897.84 1794.96 2988.22 1768.65 2988.22 1768.65C2988.22 1768.65 3012 1761.28 3040.54 1768.65C3069.08 1776.02 3045.29 1761.8 3154.7 1790.22C3264.1 1818.64 3306.91 1815.32 3349.72 1823.37C3392.53 1831.42 3711.22 1813.9 3749.27 1818.64C3787.33 1823.37 4015.64 1884.94 4110.77 1861.26C4205.91 1837.58 4301.04 1742.86 4348.6 1723.92C4396.17 1704.98 4400.93 1703.93 4434.22 1676.04C4467.52 1648.15 4500.81 1600.8 4519.84 1591.33C4538.87 1581.86 4576.92 1550.6 4595.94 1537.81C4614.97 1525.03 4672.05 1487.14 4672.05 1487.14C4672.05 1487.14 4704.52 1487.14 4705.33 1487.14C4718.42 1487.14 4728.81 1496.35 4741.98 1490.82C4741.98 1490.82 4741.99 1490.82 4742.01 1490.8C4762.82 1482.04 4777.17 1440.17 4803.5 1452.13C4819.11 1459.22 4824.21 1476.34 4832.54 1489.77C4842.25 1505.4 4855.42 1516.1 4870.46 1526.62C4897.28 1545.39 4927.08 1560.64 4947.93 1586.59C4966.96 1610.27 5071 1728.66 5071 1728.66L5012.29 3206.17L-8.43352 3263L-56 1861.26Z" fill="#C4E4FF"/>
</g>
<defs>
<linearGradient id="paint0_linear_1_2" x1="2507.5" y1="2837.14" x2="2507.5" y2="-1.41867" gradientUnits="userSpaceOnUse">
<stop stop-color="white"/>
<stop offset="0.5" stop-color="white"/>
<stop offset="0.75" stop-color="white"/>
<stop offset="0.78125" stop-color="white"/>
<stop offset="0.785156" stop-color="white"/>
<stop offset="0.789062" stop-color="#FEFFFF"/>
<stop offset="0.796875" stop-color="#FEFFFF"/>
<stop offset="0.8125" stop-color="#FEFFFF"/>
<stop offset="0.816406" stop-color="#FEFFFF"/>
<stop offset="0.820312" stop-color="#FDFEFF"/>
<stop offset="0.828125" stop-color="#FDFEFF"/>
<stop offset="0.835938" stop-color="#FDFEFF"/>
<stop offset="0.84375" stop-color="#FCFDFE"/>
<stop offset="0.851562" stop-color="#FBFDFE"/>
<stop offset="0.855469" stop-color="#FAFDFE"/>
<stop offset="0.859375" stop-color="#FAFCFE"/>
<stop offset="0.867188" stop-color="#F9FCFE"/>
<stop offset="0.871094" stop-color="#F8FCFE"/>
<stop offset="0.875" stop-color="#F8FCFE"/>
<stop offset="0.878906" stop-color="#F7FBFE"/>
<stop offset="0.882812" stop-color="#F6FAFE"/>
<stop offset="0.886719" stop-color="#F6FAFE"/>
<stop offset="0.890625" stop-color="#F5FAFD"/>
<stop offset="0.894531" stop-color="#F4F9FD"/>
<stop offset="0.898438" stop-color="#F2F9FD"/>
<stop offset="0.902344" stop-color="#F2F8FD"/>
<stop offset="0.90625" stop-color="#F1F8FD"/>
<stop offset="0.910156" stop-color="#F0F7FD"/>
<stop offset="0.914062" stop-color="#EEF7FD"/>
<stop offset="0.917969" stop-color="#EDF6FC"/>
<stop offset="0.921875" stop-color="#EBF5FC"/>
<stop offset="0.925781" stop-color="#EAF4FC"/>
<stop offset="0.929688" stop-color="#E9F4FC"/>
<stop offset="0.933594" stop-color="#E7F3FC"/>
<stop offset="0.9375" stop-color="#E6F2FB"/>
<stop offset="0.941406" stop-color="#E4F1FB"/>
<stop offset="0.945312" stop-color="#E2F0FB"/>
<stop offset="0.949219" stop-color="#E0EFFA"/>
<stop offset="0.953125" stop-color="#DEEEFA"/>
<stop offset="0.957031" stop-color="#DBEDFA"/>
<stop offset="0.960938" stop-color="#D9ECF9"/>
<stop offset="0.964844" stop-color="#D6EBF9"/>
<stop offset="0.96875" stop-color="#D4EAF9"/>
<stop offset="0.972656" stop-color="#D1E8F8"/>
<stop offset="0.976562" stop-color="#CEE7F8"/>
<stop offset="0.980469" stop-color="#CBE5F7"/>
<stop offset="0.984375" stop-color="#C8E4F7"/>
<stop offset="0.988281" stop-color="#C5E2F6"/>
<stop offset="0.992188" stop-color="#C2E0F6"/>
<stop offset="0.996094" stop-color="#BEDFF5"/>
<stop offset="1" stop-color="#BADDF5"/>
</linearGradient>
<clipPath id="clip0_1_2">
<rect width="5000" height="2900" fill="white"/>
</clipPath>
</defs>
</svg>
