<svg xmlns="http://www.w3.org/2000/svg" width="800" height="800" fill="#85bd40" viewBox="0 0 24 24"><path d="M14.7 15.96h1.92V8.04H14.7zm-3.35-2.26a.5.5 0 0 1-.51.51H9.73a.5.5 0 0 1-.52-.5v-3.2h-1.9v3.35c0 1.36.87 2.09 2.16 2.09h1.87c1.19 0 1.91-.86 1.91-2.1v-3.34h-1.91zm10.75-3.19v3.2a.5.5 0 0 1-.51.5h-1.11a.5.5 0 0 1-.52-.5v-3.2h-1.9v3.35c0 1.36.87 2.09 2.16 2.09h1.87c1.19 0 1.91-.86 1.91-2.1v-3.34zm-18.32 0H2.56c-.44 0-.65.11-.65.11V8.04H0v7.9h1.9v-3.17c0-.28.23-.51.51-.51h1.11c.28 0 .52.23.52.5v3.2h1.9V12.5c0-1.44-.96-2-2.16-2"/></svg>