<svg width="319" height="319" viewBox="0 0 319 319" fill="none" xmlns="http://www.w3.org/2000/svg">
<path fill-rule="evenodd" clip-rule="evenodd" d="M159.5 319C247.589 319 319 247.589 319 159.5C319 71.4106 247.589 0 159.5 0C71.4106 0 0 71.4106 0 159.5C0 247.589 71.4106 319 159.5 319ZM161.909 289.124C233.233 289.124 291.051 231.305 291.051 159.982C291.051 88.6587 233.233 30.8399 161.909 30.8399C90.5862 30.8399 32.7674 88.6587 32.7674 159.982C32.7674 231.305 90.5862 289.124 161.909 289.124Z" fill="#D9D9D9" fill-opacity="0.53"/>
<rect x="138.566" y="83.2012" width="31" height="176.579" rx="15.5" transform="rotate(-24.549 138.566 83.2012)" fill="#D9D9D9" fill-opacity="0.53"/>
<path fill-rule="evenodd" clip-rule="evenodd" d="M174.746 167.435L146.515 167.276L134 198.206L188 198.511L174.746 167.435Z" fill="#D9D9D9" fill-opacity="0.53"/>
<path fill-rule="evenodd" clip-rule="evenodd" d="M142.129 94L88.2308 220.157C84.9662 227.799 88.4967 236.681 96.1164 239.996C103.736 243.311 112.56 239.803 115.824 232.162L159 131.102L142.129 94Z" fill="#D9D9D9" fill-opacity="0.53"/>
<line x1="142.033" y1="94.3054" x2="143.276" y2="93.7663" stroke="#D9D9D9" stroke-opacity="0.53" stroke-width="0.1"/>
<line x1="142.448" y1="93.4016" x2="142.285" y2="95.5731" stroke="#D9D9D9" stroke-opacity="0.53" stroke-width="0.1"/>
<path d="M142.438 93.418C142.436 93.4062 142.426 93.3993 142.43 93.385C142.435 93.3678 142.45 93.403 142.451 93.4043C142.463 93.4259 142.431 93.4523 142.422 93.4336" stroke="#E6E6E6" stroke-opacity="0.53" stroke-width="0.1" stroke-linecap="round"/>
<path d="M142.16 94.207C142.16 94.1055 142.218 94.0187 142.254 93.9266C142.255 93.9253 142.273 93.8797 142.273 93.8965C142.273 93.9053 142.263 93.9158 142.26 93.9238C142.245 93.954 142.225 93.9819 142.21 94.0126C142.173 94.0901 142.138 94.1678 142.106 94.2474C142.1 94.2629 142.095 94.2783 142.09 94.2943C142.086 94.3052 142.086 94.2991 142.09 94.2925C142.109 94.2625 142.119 94.2276 142.139 94.1973C142.169 94.1511 142.206 94.1109 142.238 94.0664C142.26 94.036 142.278 94.0033 142.297 93.9711C142.303 93.9605 142.308 93.944 142.316 93.9353C142.321 93.9303 142.32 93.9427 142.32 93.944C142.317 93.9589 142.308 93.9716 142.301 93.9844C142.243 94.0864 142.204 94.1999 142.159 94.3077C142.142 94.3487 142.123 94.3891 142.106 94.4301C142.105 94.4332 142.1 94.4548 142.096 94.4564C142.091 94.4582 142.105 94.4211 142.105 94.4201C142.121 94.3817 142.133 94.3423 142.148 94.3038C142.175 94.2378 142.207 94.1742 142.234 94.1085C142.246 94.0802 142.267 94.0484 142.273 94.0182C142.274 94.0168 142.273 94.0215 142.274 94.0226C142.276 94.0243 142.281 94.0236 142.283 94.0232C142.303 94.0196 142.322 94.0036 142.338 93.9922C142.346 93.9859 142.362 93.9737 142.351 93.9931C142.336 94.018 142.319 94.0434 142.308 94.0699C142.28 94.1368 142.257 94.2083 142.237 94.2778C142.229 94.3031 142.222 94.3284 142.212 94.3529C142.21 94.3568 142.207 94.3691 142.207 94.3648C142.207 94.3504 142.211 94.337 142.216 94.3234C142.244 94.2393 142.272 94.1552 142.301 94.0712C142.325 93.9972 142.397 93.7749 142.382 93.8516C142.377 93.8745 142.371 93.8958 142.365 93.9184C142.343 94.0024 142.335 94.0882 142.322 94.1738C142.311 94.2477 142.3 94.3227 142.285 94.3958C142.282 94.4097 142.281 94.4326 142.281 94.4045C142.281 94.3709 142.281 94.3374 142.288 94.3043C142.302 94.2358 142.334 94.1694 142.355 94.1024C142.368 94.0582 142.387 94.0072 142.39 93.9605C142.392 93.9388 142.388 93.9166 142.391 93.895C142.393 93.8777 142.395 93.9044 142.395 93.908C142.394 93.9464 142.382 93.9835 142.379 94.0217C142.369 94.1517 142.37 94.2836 142.367 94.4138C142.366 94.4866 142.363 94.5592 142.363 94.6319C142.363 94.6387 142.36 94.6506 142.359 94.6367C142.359 94.6096 142.359 94.5823 142.359 94.5551C142.359 94.4192 142.388 94.2828 142.401 94.1476C142.41 94.0409 142.42 93.9341 142.433 93.8277C142.435 93.8087 142.434 93.7891 142.434 93.77C142.434 93.7537 142.434 93.7799 142.434 93.7834C142.434 93.8046 142.433 93.8246 142.43 93.8455C142.417 93.9164 142.424 93.9962 142.431 94.0673C142.441 94.1839 142.456 94.3 142.463 94.4169C142.465 94.4625 142.466 94.5078 142.47 94.5534C142.474 94.5995 142.477 94.6462 142.477 94.6925C142.477 94.7152 142.472 94.6715 142.471 94.6656C142.434 94.4968 142.422 94.3213 142.422 94.1489C142.422 94.0812 142.426 94.0136 142.426 93.946C142.426 93.9345 142.422 93.9836 142.422 93.9909C142.412 94.2338 142.424 94.4776 142.404 94.7203C142.403 94.7305 142.405 94.7836 142.394 94.7921C142.386 94.7981 142.379 94.7185 142.379 94.7148C142.377 94.4662 142.379 94.2174 142.379 93.9687C142.379 93.918 142.378 93.8672 142.379 93.8164C142.38 93.7366 142.405 93.6617 142.422 93.5849C142.423 93.5807 142.429 93.5676 142.425 93.5634C142.422 93.5601 142.408 93.5623 142.405 93.5651C142.374 93.5964 142.378 93.66 142.369 93.7012C142.363 93.733 142.351 93.7568 142.338 93.7869C142.325 93.8175 142.299 93.8393 142.282 93.8672C142.274 93.8805 142.298 93.8403 142.307 93.8277C142.332 93.7931 142.346 93.7535 142.363 93.7148C142.374 93.6914 142.381 93.6797 142.399 93.6649C142.408 93.6576 142.406 93.7125 142.405 93.7179C142.4 93.7456 142.402 93.7745 142.402 93.8027C142.402 93.8087 142.414 93.8451 142.417 93.8398C142.42 93.8335 142.423 93.8255 142.426 93.8188C142.428 93.8119 142.426 93.8337 142.426 93.8411C142.426 93.8989 142.451 93.9555 142.467 94.01C142.486 94.0717 142.5 94.1308 142.504 94.1953C142.51 94.2963 142.52 94.3981 142.52 94.4991C142.52 94.5097 142.521 94.5221 142.519 94.5326C142.519 94.5353 142.503 94.4937 142.502 94.4863C142.498 94.459 142.502 94.4311 142.499 94.4036C142.496 94.3729 142.487 94.3433 142.481 94.3132C142.476 94.29 142.474 94.2663 142.466 94.2439C142.458 94.2222 142.461 94.2741 142.461 94.281C142.461 94.3403 142.475 94.394 142.493 94.4505C142.547 94.6237 142.605 94.8099 142.605 94.9933C142.605 95.0091 142.603 95.0182 142.594 95C142.576 94.9637 142.576 94.9142 142.569 94.8754C142.543 94.7469 142.515 94.6226 142.504 94.4915C142.501 94.4549 142.493 94.3449 142.493 94.3817C142.493 94.3958 142.499 94.4154 142.501 94.4297C142.507 94.466 142.529 94.4963 142.547 94.5273C142.568 94.5633 142.587 94.5999 142.609 94.6359C142.617 94.6508 142.614 94.6717 142.617 94.6884C142.62 94.7016 142.637 94.7628 142.611 94.7368C142.602 94.7271 142.586 94.7305 142.573 94.7305C142.542 94.7305 142.514 94.7266 142.483 94.7266C142.474 94.7266 142.436 94.7324 142.43 94.7246C142.424 94.7171 142.431 94.718 142.436 94.7233C142.454 94.7427 142.471 94.7582 142.485 94.7817C142.516 94.8333 142.53 94.8927 142.559 94.9444C142.571 94.9669 142.578 94.9948 142.584 95.0197C142.596 95.0705 142.606 95.1181 142.627 95.1656C142.629 95.1698 142.672 95.2504 142.679 95.2131C142.688 95.1667 142.669 95.1246 142.65 95.0838C142.638 95.0559 142.63 95.0258 142.613 95" stroke="#E6E6E6" stroke-opacity="0.53" stroke-width="0.1" stroke-linecap="round"/>
</svg>
