<svg xmlns="http://www.w3.org/2000/svg" viewBox="36 139.2 648 430.9"><defs><radialGradient id="a" cx="0" cy="0" r="1" fx="0" fy="0" gradientTransform="matrix(131 157 -260 217 49 229)" gradientUnits="userSpaceOnUse"><stop offset="0" style="stop-color:#4894fe;stop-opacity:1"/><stop offset=".7" style="stop-color:#0934b3;stop-opacity:1"/></radialGradient><radialGradient id="b" cx="0" cy="0" r="1" fx="0" fy="0" gradientTransform="rotate(131 300 133)scale(878 651)" gradientUnits="userSpaceOnUse"><stop offset=".2" style="stop-color:#23c0fe;stop-opacity:1"/><stop offset=".5" style="stop-color:#1c91ff;stop-opacity:1"/></radialGradient><radialGradient id="c" cx="0" cy="0" r="1" fx="0" fy="0" gradientTransform="rotate(220 134 87)scale(179 409)" gradientUnits="userSpaceOnUse"><stop offset="0" style="stop-color:#fff;stop-opacity:.4"/><stop offset=".7" style="stop-color:#adc0ff;stop-opacity:0"/></radialGradient><radialGradient id="d" cx="0" cy="0" r="1" fx="0" fy="0" gradientTransform="rotate(220 270 157)scale(201 306)" gradientUnits="userSpaceOnUse"><stop offset="0" style="stop-color:#033acc;stop-opacity:1"/><stop offset="1" style="stop-color:#368eff;stop-opacity:0"/></radialGradient><radialGradient id="e" cx="0" cy="0" r="1" fx="0" fy="0" gradientTransform="rotate(67 -11 192)scale(442 477)" gradientUnits="userSpaceOnUse"><stop offset=".6" style="stop-color:#3464e3;stop-opacity:0"/><stop offset="1" style="stop-color:#033acc;stop-opacity:.6"/></radialGradient><radialGradient id="f" cx="0" cy="0" r="1" fx="0" fy="0" gradientTransform="matrix(-459 459 -720 -720 590 39)" gradientUnits="userSpaceOnUse"><stop offset="0" style="stop-color:#4bfde8;stop-opacity:.898039"/><stop offset=".5" style="stop-color:#4bfde8;stop-opacity:0"/></radialGradient><radialGradient id="h" cx="0" cy="0" r="1" fx="0" fy="0" gradientTransform="matrix(274 109 -205 518 296 307)" gradientUnits="userSpaceOnUse"><stop offset="0" style="stop-color:#fff;stop-opacity:.4"/><stop offset=".8" style="stop-color:#fff;stop-opacity:0"/></radialGradient><radialGradient id="i" cx="0" cy="0" r="1" fx="0" fy="0" gradientTransform="rotate(139 291 250)scale(404 405)" gradientUnits="userSpaceOnUse"><stop offset="0" style="stop-color:#4bfde8;stop-opacity:.898039"/><stop offset=".6" style="stop-color:#4bfde8;stop-opacity:0"/></radialGradient><linearGradient id="g" x1="30" x2="30" y1="38" y2="18.4" gradientTransform="scale(15)" gradientUnits="userSpaceOnUse"><stop offset="0" style="stop-color:#0086ff;stop-opacity:1"/><stop offset=".5" style="stop-color:#0bf;stop-opacity:1"/></linearGradient></defs><path d="M215 205c-99 0-173 81-179 172 4 19 15 57 33 55 22-2 78 0 126-86 35-63 106-141 20-141m0 0" style="stroke:none;fill-rule:nonzero;fill:url(#a)"/><path d="M192 239 99 391a34 34 0 0 1-62-24 181 181 0 0 0 180 202c115 0 388-142 361-285a217 217 0 0 0-204-145c-93 0-153 54-182 100m0 0" style="stroke:none;fill-rule:nonzero;fill:url(#b)"/><path d="M192 239 99 391a34 34 0 0 1-62-24 181 181 0 0 0 180 202c115 0 388-142 361-285a217 217 0 0 0-204-145c-93 0-153 54-182 100m0 0" style="stroke:none;fill-rule:nonzero;fill:url(#c)"/><path d="M192 239 99 391a34 34 0 0 1-62-24 181 181 0 0 0 180 202c115 0 388-142 361-285a217 217 0 0 0-204-145c-93 0-153 54-182 100m0 0" style="stroke:none;fill-rule:nonzero;fill:url(#d)"/><path d="M192 239 99 391a34 34 0 0 1-62-24 181 181 0 0 0 180 202c115 0 388-142 361-285a217 217 0 0 0-204-145c-93 0-153 54-182 100m0 0" style="stroke:none;fill-rule:nonzero;fill:url(#e)"/><path d="M192 239 99 391a34 34 0 0 1-62-24 181 181 0 0 0 180 202c115 0 388-142 361-285a217 217 0 0 0-204-145c-93 0-153 54-182 100m0 0" style="stroke:none;fill-rule:nonzero;fill:url(#f)"/><path d="m216 569 320 1a148 148 0 0 0 0-298c-83 0-131 62-167 130-42 80-96 167-153 167m0 0" style="stroke:none;fill-rule:nonzero;fill:url(#g)"/><path d="m216 569 320 1a148 148 0 0 0 0-298c-83 0-131 62-167 130-42 80-96 167-153 167m0 0" style="stroke:none;fill-rule:nonzero;fill:url(#h)"/><path d="m216 569 320 1a148 148 0 0 0 0-298c-83 0-131 62-167 130-42 80-96 167-153 167m0 0" style="stroke:none;fill-rule:nonzero;fill:url(#i)"/></svg>