<svg xmlns="http://www.w3.org/2000/svg" data-name="logosandtypes com" viewBox="0 0 150 150">
  <defs>
    <linearGradient id="a" x1="102.7" x2="66.9" y1="104.67" y2="69.85" gradientTransform="matrix(1 0 0 -1 0 152.15)" gradientUnits="userSpaceOnUse">
      <stop offset=".11" stop-color="#ff68cf"/>
      <stop offset=".32" stop-color="#ea61e6"/>
      <stop offset=".57" stop-color="#cc51ff"/>
      <stop offset="1" stop-color="#7936ff"/>
    </linearGradient>
    <linearGradient id="b" x1="55.35" x2="55.35" y1="74.14" y2="6.31" gradientTransform="matrix(1 0 0 -1 0 152.15)" gradientUnits="userSpaceOnUse">
      <stop offset=".09" stop-color="#7c2fff"/>
      <stop offset="1" stop-color="#33c9ff"/>
    </linearGradient>
    <linearGradient id="c" x1="92.96" x2="14.7" y1="74.81" y2="107.11" gradientTransform="matrix(1 0 0 -1 0 152.15)" gradientUnits="userSpaceOnUse">
      <stop offset=".05" stop-color="#ff68cf"/>
      <stop offset=".99" stop-color="#ff9059"/>
    </linearGradient>
  </defs>
  <path d="M0 0h150v150H0z" style="fill:none"/>
  <path d="M69.61 63.28 46.09 37.39c2.31-4.64 5.43-8.95 9.36-12.92 9.62-9.74 21.25-14.6 34.89-14.6s25.26 4.87 34.89 14.6c9.57 9.68 14.36 21.36 14.36 35.03s-4.79 25.34-14.36 35.03c-9.62 9.74-21.25 14.6-34.89 14.6V80.66c5.69 0 10.55-2.04 14.59-6.13 4.09-4.14 6.14-9.15 6.14-15.03s-2.05-10.89-6.14-15.03c-4.04-4.09-8.91-6.13-14.59-6.13s-10.55 2.04-14.59 6.13c-4.09 4.14-6.14 9.15-6.14 15.03z" style="fill-rule:evenodd;fill:url(#a)"/>
  <path d="M41.1 83.73v58.46h2.16c14.55 0 26.35-11.78 26.35-26.31v-7.81c-3.72-1.61-7.56-4.09-11.51-7.45-7.04-5.98-12.7-11.62-17-16.9Z" style="fill:url(#b);fill-rule:evenodd"/>
  <path d="m13.84 38.97-4.9 4.44L49 87.45l6.25 6.88.21.22c9.62 9.74 21.25 14.6 34.89 14.6s25.26-4.87 34.89-14.6c9.57-9.68 14.36-21.36 14.36-35.03h-28.51c0 5.88-2.05 10.89-6.14 15.03-4.04 4.09-8.9 6.13-14.59 6.13s-10.4-1.98-14.4-5.94L56.83 53.65l-.02.02-12.02-13.22c-8.13-8.94-21.97-9.6-30.93-1.49Z" style="fill-rule:evenodd;fill:url(#c)"/>
</svg>
