<svg aria-hidden="true" style="position: absolute; width: 0; height: 0; overflow: hidden;" version="1.1" xmlns="http://www.w3.org/2000/svg" xmlns:xlink="http://www.w3.org/1999/xlink">
<defs>
<symbol id="icon-logowinex" viewBox="0 0 32 32">
<path fill="#30f" style="fill: var(--color1, #30f)" opacity="0.658824" d="M5.718 9.575c1.212-0.338 2.468 0.37 2.806 1.582l3.147 11.283c0.338 1.212-0.37 2.468-1.582 2.806s-2.468-0.37-2.806-1.582l-3.147-11.283c-0.338-1.212 0.37-2.468 1.582-2.806z"></path>
<path fill="#000" style="fill: var(--color2, #000)" opacity="0.53" d="M5.718 9.575c1.212-0.338 2.468 0.37 2.806 1.582l3.147 11.283c0.338 1.212-0.37 2.468-1.582 2.806s-2.468-0.37-2.806-1.582l-3.147-11.283c-0.338-1.212 0.37-2.468 1.582-2.806z"></path>
<path fill="#30f" style="fill: var(--color1, #30f)" opacity="0.658824" d="M32 16c0-8.837-7.163-16-16-16s-16 7.163-16 16c0 8.837 7.163 16 16 16s16-7.163 16-16zM28.698 15.829c0 7.107-5.761 12.868-12.868 12.868s-12.868-5.761-12.868-12.868c0-7.107 5.761-12.868 12.868-12.868 1.854 0 3.616 0.392 5.208 1.098l-3.614 0.011c-1.258 0.004-2.274 1.027-2.271 2.284s1.027 2.274 2.285 2.271l6.533-0.020c0.747-0.002 1.408-0.364 1.822-0.92 1.816 2.218 2.905 5.054 2.905 8.144z"></path>
<path fill="#000" style="fill: var(--color2, #000)" opacity="0.53" d="M32 16c0-8.837-7.163-16-16-16s-16 7.163-16 16c0 8.837 7.163 16 16 16s16-7.163 16-16zM28.698 15.829c0 7.107-5.761 12.868-12.868 12.868s-12.868-5.761-12.868-12.868c0-7.107 5.761-12.868 12.868-12.868 1.854 0 3.616 0.392 5.208 1.098l-3.614 0.011c-1.258 0.004-2.274 1.027-2.271 2.284s1.027 2.274 2.285 2.271l6.533-0.020c0.747-0.002 1.408-0.364 1.822-0.92 1.816 2.218 2.905 5.054 2.905 8.144z"></path>
<path fill="#30f" style="fill: var(--color1, #30f)" opacity="0.658824" d="M12.35 14.747c0.028-1.258 1.071-2.254 2.328-2.226l11.263 0.255c1.258 0.028 2.254 1.071 2.226 2.328s-1.071 2.254-2.328 2.226l-11.263-0.255c-1.258-0.028-2.254-1.071-2.226-2.328z"></path>
<path fill="#000" style="fill: var(--color2, #000)" opacity="0.53" d="M12.35 14.747c0.028-1.258 1.071-2.254 2.328-2.226l11.263 0.255c1.258 0.028 2.254 1.071 2.226 2.328s-1.071 2.254-2.328 2.226l-11.263-0.255c-1.258-0.028-2.254-1.071-2.226-2.328z"></path>
<path fill="#30f" style="fill: var(--color1, #30f)" opacity="0.658824" d="M7.454 23.345c0.028-1.258 1.071-2.254 2.328-2.226l12.563 0.284c1.258 0.028 2.254 1.071 2.226 2.328s-1.071 2.254-2.328 2.226l-12.563-0.284c-1.258-0.028-2.254-1.071-2.226-2.328z"></path>
<path fill="#000" style="fill: var(--color2, #000)" opacity="0.53" d="M7.454 23.345c0.028-1.258 1.071-2.254 2.328-2.226l12.563 0.284c1.258 0.028 2.254 1.071 2.226 2.328s-1.071 2.254-2.328 2.226l-12.563-0.284c-1.258-0.028-2.254-1.071-2.226-2.328z"></path>
<path fill="#30f" style="fill: var(--color1, #30f)" opacity="0.658824" d="M18.205 4.438c1.14 0.531 1.635 1.885 1.104 3.026l-7.614 16.36c-0.531 1.14-1.885 1.635-3.026 1.104s-1.635-1.885-1.104-3.026l7.614-16.36c0.531-1.14 1.885-1.635 3.026-1.104z"></path>
<path fill="#000" style="fill: var(--color2, #000)" opacity="0.53" d="M18.205 4.438c1.14 0.531 1.635 1.885 1.104 3.026l-7.614 16.36c-0.531 1.14-1.885 1.635-3.026 1.104s-1.635-1.885-1.104-3.026l7.614-16.36c0.531-1.14 1.885-1.635 3.026-1.104z"></path>
</symbol>
<symbol id="icon-spinner" viewBox="0 0 32 32">
<path d="M16 0c-8.837 0-16 7.163-16 16s7.163 16 16 16 16-7.163 16-16-7.163-16-16-16zM16 8c4.418 0 8 3.582 8 8s-3.582 8-8 8-8-3.582-8-8 3.582-8 8-8zM25.546 25.546c-2.55 2.55-5.94 3.954-9.546 3.954s-6.996-1.404-9.546-3.954-3.954-5.94-3.954-9.546c0-3.606 1.404-6.996 3.954-9.546l2.121 2.121c0 0 0 0 0 0-4.094 4.094-4.094 10.755 0 14.849 1.983 1.983 4.62 3.075 7.425 3.075s5.441-1.092 7.425-3.075c4.094-4.094 4.094-10.755 0-14.849l2.121-2.121c2.55 2.55 3.954 5.94 3.954 9.546s-1.404 6.996-3.954 9.546z"></path>
</symbol>
</defs>
</svg>
