<svg aria-hidden="true" style="position: absolute; width: 0; height: 0; overflow: hidden;" version="1.1" xmlns="http://www.w3.org/2000/svg" xmlns:xlink="http://www.w3.org/1999/xlink">
<defs>
<symbol id="icon-download" viewBox="0 0 32 32">
<path fill="#999" style="fill: var(--color1, #999)" d="M20.181 15.787l7.808-7.019c0.363-0.341 0.405-0.896 0.085-1.259-0.341-0.363-0.896-0.405-1.28-0.085l-10.795 9.707-2.091-1.899c-0.021 0-0.021 0-0.021-0.021-0.043-0.043-0.085-0.085-0.149-0.107l-8.576-7.68c-0.363-0.32-0.917-0.299-1.259 0.085-0.32 0.363-0.299 0.917 0.085 1.259l7.915 7.083-7.893 7.381c-0.363 0.341-0.363 0.896-0.043 1.259 0.192 0.192 0.427 0.277 0.661 0.277 0.213 0 0.448-0.064 0.619-0.235l8-7.488 2.176 1.941c0.171 0.149 0.384 0.235 0.597 0.235 0.192 0 0.427-0.085 0.597-0.235l2.219-2.005 7.957 7.552c0.171 0.171 0.405 0.256 0.619 0.256 0.235 0 0.469-0.085 0.661-0.277 0.32-0.363 0.32-0.939-0.043-1.259l-7.851-7.467z"></path>
</symbol>
<symbol id="icon-envelope" viewBox="0 0 32 32">
<path fill="#999" style="fill: var(--color1, #999)" d="M28.075 3.819h-24.171c-2.155 0-3.904 1.749-3.904 3.904v16.533c0 2.155 1.749 3.904 3.904 3.904h24.171c2.155 0 3.925-1.749 3.925-3.904v-16.533c0-2.155-1.771-3.904-3.925-3.904zM30.208 24.256c0 1.173-0.96 2.112-2.133 2.112h-24.171c-1.173 0-2.133-0.939-2.133-2.112v-16.533c0-1.152 0.96-2.112 2.133-2.112h24.171c1.173 0 2.133 0.96 2.133 2.112v16.533z"></path>
<path fill="#999" style="fill: var(--color1, #999)" d="M20.181 15.787l7.808-7.019c0.363-0.341 0.405-0.896 0.085-1.259-0.341-0.363-0.896-0.405-1.28-0.085l-10.795 9.707-2.091-1.899c-0.021 0-0.021 0-0.021-0.021-0.043-0.043-0.085-0.085-0.149-0.107l-8.576-7.68c-0.363-0.32-0.917-0.299-1.259 0.085-0.32 0.363-0.299 0.917 0.085 1.259l7.915 7.083-7.893 7.381c-0.363 0.341-0.363 0.896-0.043 1.259 0.192 0.192 0.427 0.277 0.661 0.277 0.213 0 0.448-0.064 0.619-0.235l8-7.488 2.176 1.941c0.171 0.149 0.384 0.235 0.597 0.235 0.192 0 0.427-0.085 0.597-0.235l2.219-2.005 7.957 7.552c0.171 0.171 0.405 0.256 0.619 0.256 0.235 0 0.469-0.085 0.661-0.277 0.32-0.363 0.32-0.939-0.043-1.259l-7.851-7.467z"></path>
</symbol>
</defs>
</svg>
