<svg aria-hidden="true" style="position: absolute; width: 0; height: 0; overflow: hidden;" version="1.1" xmlns="http://www.w3.org/2000/svg" xmlns:xlink="http://www.w3.org/1999/xlink">
<defs>
<symbol id="icon-copyright" viewBox="0 0 32 32">
<path d="M16 0.5c-8.56 0-15.5 6.94-15.5 15.5s6.94 15.5 15.5 15.5 15.5-6.94 15.5-15.5-6.94-15.5-15.5-15.5zM23.321 22.172c-0.099 0.117-2.486 2.858-6.866 2.858-5.293 0-9.030-3.954-9.030-9.098 0-5.081 3.875-8.963 8.985-8.963 4.185 0 6.373 2.332 6.464 2.431 0.122 0.133 0.197 0.311 0.197 0.507 0 0.151-0.045 0.292-0.122 0.41l0.002-0.003-1.399 2.166c-0.253 0.392-0.798 0.459-1.14 0.143-0.015-0.013-1.658-1.492-3.867-1.492-2.882 0-4.62 2.098-4.62 4.755 0 2.475 1.595 4.981 4.642 4.981 2.419 0 4.080-1.771 4.096-1.789 0.321-0.348 0.879-0.315 1.157 0.066l1.534 2.098c0.090 0.122 0.145 0.276 0.145 0.443 0 0.186-0.068 0.356-0.18 0.487l0.001-0.001z"></path>
</symbol>
<symbol id="icon-left-arrow" viewBox="0 0 20 32">
<path d="M8.129 16.249l10.038 10.038c1.307 1.307 1.307 3.426 0 4.732s-3.426 1.307-4.732 0l-12.455-12.455c-1.307-1.307-1.307-3.426 0-4.733 0.168-0.168 0.349-0.314 0.54-0.438l12.414-12.414c1.307-1.307 3.426-1.307 4.733 0s1.307 3.426 0 4.733l-10.537 10.537z"></path>
</symbol>
<symbol id="icon-right-arrow" viewBox="0 0 20 32">
<path d="M11.517 16.249l-10.038 10.038c-1.307 1.307-1.307 3.426 0 4.732s3.426 1.307 4.733 0l12.455-12.455c1.307-1.307 1.307-3.426 0-4.733-0.168-0.168-0.349-0.314-0.54-0.438l-12.414-12.414c-1.307-1.307-3.426-1.307-4.733 0s-1.307 3.426 0 4.733l10.537 10.537z"></path>
</symbol>
</defs>
</svg>
