<svg aria-hidden="true" style="position: absolute; width: 0; height: 0; overflow: hidden;" version="1.1" xmlns="http://www.w3.org/2000/svg" xmlns:xlink="http://www.w3.org/1999/xlink">
<defs>
<symbol id="icon-download" viewBox="0 0 32 32">
<path fill="#1c274c" style="fill: currentColor" d="M2.667 16c0 6.285 0 9.428 1.953 11.381s5.095 1.953 11.381 1.953c6.285 0 9.428 0 11.381-1.953s1.953-5.095 1.953-11.381c0-6.285 0-9.428-1.953-11.381s-5.095-1.953-11.381-1.953c-6.285 0-9.428 0-11.381 1.953s-1.953 5.095-1.953 11.381zM16 8.333c0.552 0 1 0.448 1 1v6.919l2.293-2.293c0.391-0.391 1.024-0.391 1.414 0s0.391 1.024 0 1.414l-4 4c-0.187 0.188-0.442 0.293-0.707 0.293s-0.52-0.105-0.707-0.293l-4-4c-0.391-0.391-0.391-1.024 0-1.414s1.024-0.391 1.414 0l2.293 2.293v-6.919c0-0.552 0.448-1 1-1zM10.667 21.667h10.667c0.552 0 1 0.448 1 1s-0.448 1-1 1h-10.667c-0.552 0-1-0.448-1-1s0.448-1 1-1z"></path>
</symbol>
<symbol id="icon-info" viewBox="0 0 32 32">
<path fill="#1c274c" style="fill: var(--color1, #1c274c)" d="M29.333 16c0 7.364-5.97 13.333-13.333 13.333s-13.333-5.97-13.333-13.333c0-7.364 5.97-13.333 13.333-13.333s13.333 5.97 13.333 13.333zM16 23.667c0.552 0 1-0.448 1-1v-8c0-0.552-0.448-1-1-1s-1 0.448-1 1v8c0 0.552 0.448 1 1 1zM16 9.333c-0.736 0-1.333 0.597-1.333 1.333s0.597 1.333 1.333 1.333c0.736 0 1.333-0.597 1.333-1.333s-0.597-1.333-1.333-1.333z"></path>
</symbol>
<symbol id="icon-req" viewBox="0 0 32 32">
<path d="M8 0c-4.418 0-8 3.582-8 8v0 16c0 4.418 3.582 8 8 8v0h16c4.418 0 8-3.582 8-8v0-16c0-4.418-3.582-8-8-8v0h-16zM8 9.5c0-0.828 0.672-1.5 1.5-1.5v0h13c0.828 0 1.5 0.672 1.5 1.5s-0.672 1.5-1.5 1.5v0h-13c-0.828 0-1.5-0.672-1.5-1.5v0zM27.56 20.94c0.271 0.271 0.439 0.646 0.439 1.060s-0.168 0.789-0.439 1.060l-4.5 4.5c-0.271 0.271-0.646 0.439-1.060 0.439s-0.789-0.168-1.060-0.439l-2.5-2.5c-0.294-0.275-0.477-0.665-0.477-1.097 0-0.828 0.672-1.5 1.5-1.5 0.433 0 0.823 0.183 1.097 0.477l0.001 0.001 1.44 1.44 3.44-3.44c0.271-0.271 0.646-0.439 1.060-0.439s0.789 0.168 1.060 0.439l-0-0zM8 16c0-0.828 0.672-1.5 1.5-1.5v0h13c0.828 0 1.5 0.672 1.5 1.5s-0.672 1.5-1.5 1.5v0h-13c-0.828 0-1.5-0.672-1.5-1.5v0zM8 22.5c0-0.828 0.672-1.5 1.5-1.5v0h5c0.828 0 1.5 0.672 1.5 1.5s-0.672 1.5-1.5 1.5v0h-5c-0.828 0-1.5-0.672-1.5-1.5v0z"></path>
</symbol>
<symbol id="icon-secure" viewBox="0 0 32 32">
<path d="M25.893 5.107l-9.573-2.44c-0.048-0.009-0.103-0.014-0.16-0.014s-0.112 0.005-0.166 0.015l0.006-0.001c-0.040-0.006-0.086-0.010-0.133-0.010s-0.093 0.004-0.138 0.011l0.005-0.001-9.627 2.44c-1.17 0.299-2.021 1.344-2.021 2.587 0 0.070 0.003 0.14 0.008 0.209l-0.001-0.009 0.56 7.347c0.48 6.061 4.273 11.133 9.55 13.44l0.103 0.040 1.173 0.507c0.138 0.059 0.298 0.093 0.467 0.093s0.329-0.034 0.475-0.096l-0.008 0.003 1.173-0.507c5.38-2.347 9.173-7.419 9.65-13.424l0.004-0.056 0.56-7.347c0.006-0.068 0.010-0.148 0.010-0.228 0-1.205-0.8-2.224-1.898-2.554l-0.019-0.005zM20.947 12.947l-5.333 5.333c-0.242 0.244-0.577 0.394-0.947 0.394s-0.705-0.151-0.947-0.394l-2.667-2.667c-0.242-0.242-0.392-0.577-0.392-0.947 0-0.739 0.599-1.339 1.339-1.339 0.37 0 0.704 0.15 0.947 0.392v0l1.72 1.733 4.387-4.4c0.242-0.242 0.577-0.392 0.947-0.392 0.739 0 1.339 0.599 1.339 1.339 0 0.37-0.15 0.704-0.392 0.947v0z"></path>
</symbol>
</defs>
</svg>
