<svg aria-hidden="true" style="position: absolute; width: 0; height: 0; overflow: hidden;" version="1.1" xmlns="http://www.w3.org/2000/svg" xmlns:xlink="http://www.w3.org/1999/xlink">
<defs>
<symbol id="icon-go" viewBox="0 0 34 32">
<path fill="#fff" style="fill: var(--color1, #fff)" d="M32.557 1.398c0.111-0.058 0.247-0.044 0.347 0.033 0.098 0.078 0.142 0.205 0.113 0.328l-5.821 23.763c-0.021 0.086-0.077 0.158-0.154 0.203-0.049 0.027-0.105 0.042-0.16 0.042-0.031 0-0.063-0.005-0.093-0.014l-11.644-3.512c-0.104-0.031-0.184-0.112-0.216-0.215-0.030-0.104-0.006-0.215 0.063-0.297l11.591-13.584-15.090 12.772c-0.084 0.077-0.204 0.102-0.313 0.067l-9.921-3.124c-0.124-0.040-0.213-0.151-0.224-0.279-0.010-0.13 0.058-0.252 0.175-0.312l31.348-15.871zM15.334 24.731l3.218 0.98c0.096 0.029 0.173 0.102 0.208 0.195 0.035 0.092 0.024 0.197-0.030 0.281l-3.218 5.034c-0.062 0.094-0.165 0.149-0.273 0.149-0.031 0-0.061-0.005-0.090-0.012-0.139-0.040-0.234-0.165-0.234-0.307v-6.014c0-0.102 0.048-0.198 0.131-0.258s0.19-0.080 0.287-0.048z"></path>
</symbol>
<symbol id="icon-home3" viewBox="0 0 32 32">
<path d="M32 19l-6-6v-9h-4v5l-6-6-16 16v1h4v10h10v-6h4v6h10v-10h4z"></path>
</symbol>
</defs>
</svg>
