<svg xmlns="http://www.w3.org/2000/svg" fill="none" viewBox="4 4 36 38"><path fill="url(#a)" d="M22 20h12q5 1 6 6v10a6 6 0 0 1-12 0V26q-1-5-6-6"/><path fill="url(#b)" d="M8 24q1-5 6-6h8q5 1 6 6v12q1 5 6 6H18Q9 42 8 32z"/><path fill="url(#c)" fill-opacity=".7" d="M8 24q1-5 6-6h8q5 1 6 6v12q1 5 6 6H18Q9 42 8 32z"/><path fill="url(#d)" fill-opacity=".7" d="M8 24q1-5 6-6h8q5 1 6 6v12q1 5 6 6H18Q9 42 8 32z"/><path fill="url(#e)" d="M33 18a5 5 0 1 0 0-10 5 5 0 0 0 0 10"/><path fill="url(#f)" fill-opacity=".5" d="M33 18a5 5 0 1 0 0-10 5 5 0 0 0 0 10"/><path fill="url(#g)" fill-opacity=".4" d="M33 18a5 5 0 1 0 0-10 5 5 0 0 0 0 10"/><path fill="url(#h)" d="M18 16a6 6 0 1 0 0-12 6 6 0 0 0 0 12"/><path fill="url(#i)" fill-opacity=".6" d="M18 16a6 6 0 1 0 0-12 6 6 0 0 0 0 12"/><path fill="url(#j)" fill-opacity=".5" d="M18 16a6 6 0 1 0 0-12 6 6 0 0 0 0 12"/><rect width="16" height="16" x="4" y="23" fill="url(#k)" rx="3.3"/><rect width="16" height="16" x="4" y="23" fill="url(#l)" fill-opacity=".7" rx="3.3"/><path fill="#fff" d="M15 28h-2v8h-2v-8H9v-2h6z"/><defs><radialGradient id="a" cx="0" cy="0" r="1" gradientTransform="matrix(13 0 0 33 40 22)" gradientUnits="userSpaceOnUse"><stop stop-color="#a98aff"/><stop offset=".1" stop-color="#8c75ff"/><stop offset=".6" stop-color="#5f50e2"/><stop offset=".9" stop-color="#3c2cb8"/></radialGradient><radialGradient id="b" cx="0" cy="0" r="1" gradientTransform="rotate(68 -8 15)scale(33)" gradientUnits="userSpaceOnUse"><stop stop-color="#85c2ff"/><stop offset=".7" stop-color="#7588ff"/><stop offset="1" stop-color="#6459fe"/></radialGradient><radialGradient id="d" cx="0" cy="0" r="1" gradientTransform="matrix(-8 18 -14 -6 27 17)" gradientUnits="userSpaceOnUse"><stop stop-color="#bd96ff"/><stop offset=".7" stop-color="#bd96ff" stop-opacity="0"/></radialGradient><radialGradient id="e" cx="0" cy="0" r="1" gradientTransform="matrix(0 -10 13 0 33 12)" gradientUnits="userSpaceOnUse"><stop offset=".3" stop-color="#6868f7"/><stop offset="1" stop-color="#3923b1"/></radialGradient><radialGradient id="f" cx="0" cy="0" r="1" gradientTransform="matrix(5 5 -7 8 29 11)" gradientUnits="userSpaceOnUse"><stop offset=".3" stop-color="#a1d3ff"/><stop offset=".8" stop-color="#a1d3ff" stop-opacity="0"/></radialGradient><radialGradient id="g" cx="0" cy="0" r="1" gradientTransform="matrix(6 -6 14 16 37 10)" gradientUnits="userSpaceOnUse"><stop stop-color="#e3acfd"/><stop offset=".8" stop-color="#9fa2ff" stop-opacity="0"/></radialGradient><radialGradient id="h" cx="0" cy="0" r="1" gradientTransform="matrix(0 -12 15 0 18 8)" gradientUnits="userSpaceOnUse"><stop offset=".3" stop-color="#8282ff"/><stop offset="1" stop-color="#3923b1"/></radialGradient><radialGradient id="i" cx="0" cy="0" r="1" gradientTransform="matrix(7 6 -8 9 13 7)" gradientUnits="userSpaceOnUse"><stop offset=".3" stop-color="#a1d3ff"/><stop offset=".8" stop-color="#a1d3ff" stop-opacity="0"/></radialGradient><radialGradient id="j" cx="0" cy="0" r="1" gradientTransform="matrix(8 -7 17 19 23 7)" gradientUnits="userSpaceOnUse"><stop stop-color="#e3acfd"/><stop offset=".8" stop-color="#9fa2ff" stop-opacity="0"/></radialGradient><radialGradient id="k" cx="0" cy="0" r="1" gradientTransform="matrix(16 16 -16 16 4 23)" gradientUnits="userSpaceOnUse"><stop offset="0" stop-color="#688eff"/><stop offset=".9" stop-color="#230f94"/></radialGradient><radialGradient id="l" cx="0" cy="0" r="1" gradientTransform="matrix(0 11 -13 0 12 33)" gradientUnits="userSpaceOnUse"><stop offset=".6" stop-color="#6965f6" stop-opacity="0"/><stop offset="1" stop-color="#8f8fff"/></radialGradient><linearGradient id="c" x1="20.6" x2="20.6" y1="18" y2="42" gradientUnits="userSpaceOnUse"><stop offset=".8" stop-color="#6864f6" stop-opacity="0"/><stop offset="1" stop-color="#5149de"/></linearGradient></defs></svg>