<?xml version="1.0" standalone="no"?>
<!DOCTYPE svg PUBLIC "-//W3C//DTD SVG 20010904//EN"
 "http://www.w3.org/TR/2001/REC-SVG-20010904/DTD/svg10.dtd">
<svg version="1.0" xmlns="http://www.w3.org/2000/svg"
 width="576.000000pt" height="576.000000pt" viewBox="0 0 576.000000 576.000000"
 preserveAspectRatio="xMidYMid meet">

<g transform="translate(0.000000,576.000000) scale(0.100000,-0.100000)"
fill="#000000" stroke="none">
<path d="M0 2880 l0 -2880 2880 0 2880 0 0 2880 0 2880 -2880 0 -2880 0 0
-2880z m3235 2134 c156 -21 290 -52 421 -98 77 -27 296 -136 324 -161 9 -8 19
-15 23 -15 25 0 157 -109 272 -225 92 -93 123 -132 225 -285 42 -62 132 -237
156 -302 47 -131 82 -244 76 -250 -10 -10 -173 -54 -240 -65 -18 -3 -35 -9
-38 -14 -8 -13 -68 -11 -82 3 -7 7 -12 22 -12 34 0 13 -4 26 -10 29 -5 3 -10
17 -10 30 0 13 -4 27 -10 30 -5 3 -10 13 -10 21 0 26 -127 272 -180 348 -28
40 -92 114 -143 165 -205 206 -465 329 -812 382 -103 16 -426 17 -530 1 -103
-16 -265 -52 -287 -63 -10 -5 -24 -9 -31 -9 -7 0 -32 -9 -55 -20 -22 -11 -45
-20 -51 -20 -16 0 -141 -69 -215 -120 -75 -50 -250 -225 -301 -300 -189 -276
-293 -631 -313 -1068 -12 -258 13 -604 56 -777 6 -22 18 -69 26 -105 9 -36 20
-76 25 -90 68 -187 140 -331 219 -435 68 -91 203 -227 277 -279 54 -38 218
-122 302 -155 76 -30 233 -67 348 -82 121 -17 422 -17 525 -1 139 22 205 35
214 44 6 4 19 8 30 8 54 1 251 94 356 169 78 55 215 191 259 257 114 168 161
348 139 534 -22 193 -104 341 -253 455 -86 66 -89 65 -100 -24 -15 -121 -97
-336 -168 -441 -67 -98 -178 -207 -252 -246 -11 -6 -29 -16 -40 -22 -153 -88
-426 -125 -642 -87 -89 16 -210 51 -232 68 -14 12 -27 20 -93 55 -55 30 -169
141 -216 211 -69 103 -109 273 -99 416 6 80 49 239 67 250 6 3 19 25 30 48 25
54 129 162 205 213 87 58 193 108 265 125 19 4 64 15 100 24 93 23 439 32 587
15 63 -7 117 -10 120 -6 12 12 -16 125 -48 192 -41 85 -132 179 -209 215 -87
42 -154 54 -290 54 -103 0 -137 -4 -197 -23 -94 -30 -182 -88 -230 -151 -21
-27 -41 -50 -45 -50 -5 -1 -73 43 -153 97 -112 75 -145 102 -145 119 0 28 156
188 235 240 177 117 349 160 594 150 187 -8 290 -34 436 -110 91 -48 217 -165
279 -260 50 -75 110 -215 126 -292 7 -33 16 -69 20 -80 5 -11 11 -49 14 -85 4
-36 8 -78 10 -93 5 -30 22 -57 37 -57 5 0 32 -16 60 -35 28 -19 56 -35 61 -35
18 0 122 -74 190 -135 96 -86 178 -189 227 -286 24 -46 47 -88 52 -93 5 -6 9
-20 9 -32 0 -13 5 -26 10 -29 6 -3 10 -16 10 -29 0 -12 4 -26 9 -31 10 -11 17
-55 32 -205 13 -130 -1 -283 -37 -407 -26 -94 -106 -275 -136 -309 -10 -11
-18 -23 -18 -27 0 -16 -95 -129 -177 -209 -189 -188 -399 -311 -658 -387 -38
-11 -83 -23 -100 -26 -16 -3 -48 -10 -70 -15 -60 -15 -114 -20 -293 -29 -406
-22 -761 41 -1060 186 -52 25 -106 55 -120 67 -15 12 -61 44 -102 71 -90 59
-287 254 -349 345 -25 36 -57 83 -72 106 -34 49 -129 234 -129 251 0 6 -9 28
-20 50 -67 132 -144 459 -172 731 -15 152 -15 535 1 682 36 325 101 588 203
810 21 47 43 92 48 100 5 8 20 38 34 66 14 28 32 57 41 64 8 7 15 17 15 22 0
6 10 23 23 39 12 15 38 49 57 76 84 114 238 258 375 350 154 104 394 201 600
244 228 47 551 57 800 23z"/>
<path d="M2870 2813 c-141 -22 -254 -74 -331 -153 -63 -64 -84 -119 -83 -210
1 -139 122 -264 294 -306 72 -17 261 -18 325 0 58 15 146 58 193 94 59 45 147
198 172 301 18 68 37 188 36 218 -1 27 -2 28 -111 45 -102 15 -421 23 -495 11z"/>
</g>
</svg>
