<svg width="800.000000" height="800.000000" viewBox="0 0 800 800" fill="none" xmlns="http://www.w3.org/2000/svg" xmlns:xlink="http://www.w3.org/1999/xlink">
	<desc>
			Created with Pixso.
	</desc>
	<defs>
		<clipPath id="clip2_1">
			<rect id="мшиук" rx="400.000000" width="800.000000" height="800.000000" fill="white" fill-opacity="0"/>
		</clipPath>
	</defs>
	<g clip-path="url(#clip2_1)">
		<path id="path" d="M519.73 184.98C440.28 169.87 359.71 169.87 280.24 184.98C245.48 192.72 201.76 234.63 193.21 268.33C178.99 333.54 178.99 399.65 193.21 464.87C201.76 498.57 245.48 540.47 280.24 548.21C281.79 548.52 282.94 549.87 282.94 551.44L282.94 646.98C282.94 651.75 288.77 654.1 292.09 650.65L337.47 604.07C337.47 604.07 373.63 566.95 380.13 560.28C380.77 559.63 381.64 559.27 382.55 559.3C428.37 560.57 474.23 556.87 519.73 548.22C554.49 540.48 598.24 498.57 606.77 464.87C621 399.66 621 333.55 606.77 268.33C598.23 234.63 554.51 192.72 519.73 184.98ZM520.94 469.73C513.99 484.49 503.88 496.77 489.29 504.61C485.17 506.82 480.25 507.54 475.6 508.97C470.26 507.34 465.17 506.25 460.44 504.29C411.43 483.96 366.33 457.73 330.61 417.52C310.29 394.66 294.39 368.84 280.95 341.53C274.58 328.57 269.21 315.11 263.73 301.73C258.74 289.54 266.09 276.94 273.84 267.75C281.1 259.12 290.45 252.52 300.58 247.66C308.48 243.86 316.27 246.05 322.05 252.75C334.52 267.23 345.99 282.46 355.27 299.24C360.97 309.57 359.41 322.19 349.06 329.22C346.55 330.92 344.26 332.93 341.92 334.86C339.86 336.55 337.93 338.26 336.52 340.55C333.95 344.73 333.83 349.67 335.48 354.23C348.24 389.28 369.74 416.54 405.02 431.22C410.67 433.57 416.33 436.3 422.84 435.54C433.73 434.27 437.26 422.32 444.89 416.08C452.35 409.98 461.88 409.9 469.92 414.98C477.96 420.07 485.75 425.53 493.5 431.05C501.1 436.47 508.67 441.77 515.68 447.94C522.42 453.88 524.74 461.67 520.94 469.73ZM457.67 355.51C454.63 355.56 455.83 355.5 456.98 355.47C452.08 355.3 449.41 352.41 448.89 347.72C448.5 344.29 448.2 340.82 447.38 337.48C445.77 330.91 442.28 324.82 436.75 320.8C434.14 318.9 431.19 317.51 428.09 316.62C424.16 315.49 420.07 315.8 416.15 314.84C411.89 313.79 409.53 310.34 410.2 306.34C410.81 302.7 414.35 299.86 418.32 300.15C443.17 301.94 460.94 314.79 463.47 344.05C463.65 346.11 463.86 348.29 463.4 350.27C462.66 353.48 460.36 355.15 458.04 355.45C458.23 355.46 458.2 355.47 457.67 355.51ZM442.22 288.59C434.59 284.86 426.35 282.54 417.99 281.16C414.33 280.55 410.64 280.19 406.97 279.67C402.52 279.06 400.15 276.22 400.36 271.84C400.56 267.73 403.56 264.78 408.03 265.03C422.74 265.86 436.95 269.04 450.03 275.97C476.63 290.05 491.82 312.28 496.25 341.97C496.45 343.31 496.77 344.64 496.88 345.99C497.13 349.33 497.29 352.66 497.54 357.06C497.44 357.86 497.38 359.74 496.91 361.51C495.21 367.95 485.46 368.75 483.21 362.26C482.54 360.33 482.44 358.14 482.44 356.06C482.42 342.49 479.47 328.92 472.62 317.11C465.58 304.98 454.83 294.77 442.22 288.59ZM524.39 380.33C519.26 380.4 516.94 376.1 516.61 371.49C515.95 362.37 515.49 353.21 514.24 344.16C507.6 296.41 469.53 256.91 422 248.43C414.85 247.15 407.53 246.82 400.28 246.06C395.7 245.58 389.7 245.3 388.69 239.61C387.84 234.83 391.87 231.03 396.41 230.79C397.65 230.72 398.89 230.78 400.13 230.78C464.16 232.65 516.89 275.18 528.16 338.49C530.08 349.29 530.77 360.33 531.62 371.29C531.98 375.89 529.37 380.27 524.39 380.33Z" fill="#9179EE" fill-opacity="1.000000" fill-rule="nonzero"/>
		<path id="path" d="M0 0L0 800L800 800L800 0L0 0ZM653.01 475.33L652.85 475.96C640.07 527.62 582.45 583.06 529.55 594.59L528.95 594.72C486.17 602.88 443.07 606.95 400 606.95C387.32 606.95 374.64 606.56 361.97 605.85L303.54 666.58C289.07 681.64 263.64 671.39 263.64 650.52L263.64 592.85C212.7 578.31 159.38 525.42 147.13 475.96L146.99 475.33C131.19 403.18 131.19 330.01 146.99 257.87L147.13 257.24C159.92 205.57 217.54 150.14 270.43 138.6L271.04 138.48C356.6 122.16 443.37 122.16 528.95 138.48L529.55 138.6C582.45 150.14 640.07 205.57 652.85 257.24L653.01 257.87C668.8 330.02 668.8 403.18 653.01 475.33Z" fill="#9179EE" fill-opacity="1.000000" fill-rule="nonzero"/>
	</g>
</svg>
